<?xml version="1.0" encoding="UTF-8" standalone="no"?>
<!-- Created with Inkscape (http://www.inkscape.org/) -->
<svg
   xmlns:dc="http://purl.org/dc/elements/1.1/"
   xmlns:cc="http://web.resource.org/cc/"
   xmlns:rdf="http://www.w3.org/1999/02/22-rdf-syntax-ns#"
   xmlns:svg="http://www.w3.org/2000/svg"
   xmlns="http://www.w3.org/2000/svg"
   xmlns:sodipodi="http://sodipodi.sourceforge.net/DTD/sodipodi-0.dtd"
   xmlns:inkscape="http://www.inkscape.org/namespaces/inkscape"
   width="744.09448819"
   height="1052.3622047"
   id="svg2"
   sodipodi:version="0.32"
   inkscape:version="0.45.1"
   sodipodi:docbase="/home/peter/Desktop"
   sodipodi:docname="masks.svg"
   inkscape:output_extension="org.inkscape.output.svg.inkscape">
  <defs
     id="defs4" />
  <sodipodi:namedview
     id="base"
     pagecolor="#ffffff"
     bordercolor="#666666"
     borderopacity="1.0"
     gridtolerance="10000"
     guidetolerance="10"
     objecttolerance="10"
     inkscape:pageopacity="0.0"
     inkscape:pageshadow="2"
     inkscape:zoom="0.69177704"
     inkscape:cx="372.04724"
     inkscape:cy="526.18109"
     inkscape:document-units="px"
     inkscape:current-layer="layer1"
     inkscape:window-width="1280"
     inkscape:window-height="949"
     inkscape:window-x="0"
     inkscape:window-y="26" />
  <metadata
     id="metadata7">
    <rdf:RDF>
      <cc:Work
         rdf:about="">
        <dc:format>image/svg+xml</dc:format>
        <dc:type
           rdf:resource="http://purl.org/dc/dcmitype/StillImage" />
      </cc:Work>
    </rdf:RDF>
  </metadata>
  <g
     inkscape:label="Layer 1"
     inkscape:groupmode="layer"
     id="layer1">
    <g
       id="g2170"
       transform="matrix(3.4557965,0,0,3.7358723,-792.31533,-1470.0219)">
      <path
         style="fill:#fdfdfd"
         d="M 249.14287,523.79074 L 249.14287,443.79074 L 337.14287,443.79074 L 425.14287,443.79074 L 425.14287,523.79074 L 425.14287,603.79074 L 337.14287,603.79074 L 249.14287,603.79074 L 249.14287,523.79074 z "
         id="path2186" />
      <path
         style="fill:#e8e8e8"
         d="M 344.87797,602.05892 C 341.2692,600.2426 332.79624,590.01362 329.48048,583.47028 C 326.41687,577.42454 326.18688,571.33453 328.59319,559.97536 C 330.57034,550.64208 330.56347,550.49527 328.20861,551.75556 C 323.96007,554.02931 319.74992,552.98415 314.25145,548.29074 C 308.60652,543.47232 305.54823,542.77241 301.14287,545.29074 C 297.0599,547.62478 295.14287,547.19504 295.14287,543.94573 C 295.14287,540.52099 297.65734,538.0397 302.4762,536.70915 C 306.9357,535.47782 311.7405,537.29106 317.28029,542.29593 C 319.45531,544.26092 322.20813,545.79074 323.56903,545.79074 C 325.91517,545.79074 332.71451,541.02904 331.74819,540.06272 C 331.48465,539.79919 327.52815,538.93544 322.95595,538.14328 C 305.90798,535.1896 302.26434,532.02595 291.07944,510.46586 C 286.59771,501.82684 284.096,498.12332 281.79391,496.7196 C 276.71271,493.62128 274.82804,494.2015 270.24168,500.27609 C 265.92866,505.98864 261.86071,508.80035 257.94253,508.77709 C 253.51433,508.75079 251.29639,507.57559 250.06517,504.60316 C 248.46147,500.73149 249.64448,499.94035 256.10876,500.56148 C 260.491,500.98256 261.1737,500.75582 263.29688,498.17413 C 270.28864,489.67245 273.02912,487.55865 276.5297,487.96732 C 279.74158,488.34229 279.88142,488.23327 279.03708,486.01249 C 277.20558,481.19529 277.34981,481.13694 290.89287,481.21616 C 303.56654,481.29029 303.68054,481.27032 309.93487,477.87903 C 316.79777,474.15776 325.9552,465.03909 329.18269,458.71268 C 331.76898,453.64313 334.55481,453.48971 336.84426,458.29074 C 338.45101,461.66014 340.14287,462.91907 340.14287,460.74529 C 340.14287,460.17029 341.24741,458.59529 342.59741,457.24529 C 344.65623,455.18647 346.01614,454.79074 351.03232,454.79074 C 358.77643,454.79074 361.66414,453.61718 363.72465,449.6326 C 365.65813,445.89365 368.14287,443.1305 368.14287,444.71931 C 368.14287,445.3086 368.76973,445.79074 369.53588,445.79074 C 372.01626,445.79074 372.23667,448.96553 370.0674,453.44665 C 367.34691,459.06642 365.36901,460.08782 355.75192,460.83924 C 346.9265,461.5288 345.72379,462.39284 344.63724,468.82409 C 344.10919,471.94956 344.75341,474.58333 348.06477,482.83695 C 356.22061,503.16548 356.78083,508.92932 351.64287,519.65044 C 349.71787,523.66724 348.14287,527.49958 348.14287,528.16674 C 348.14287,530.18668 357.62816,536.76121 363.54035,538.83918 C 370.55002,541.30287 382.11245,541.33545 391.3824,538.91761 C 395.08914,537.95079 398.68914,537.51048 399.3824,537.93912 C 400.36918,538.54925 400.13161,540.62626 398.2883,547.50461 C 394.86814,560.26703 394.88717,559.99292 397.16657,563.662 C 399.10091,566.77564 399.54302,566.98286 402.95191,566.37366 C 413.08145,564.56344 417.07391,564.51554 419.60483,566.17386 C 423.08473,568.45397 425.56564,574.56744 424.21448,577.53293 C 422.79697,580.64402 421.68212,580.36987 419.29443,576.32304 C 416.73729,571.98901 413.87443,571.23756 405.75594,572.7694 C 400.26361,573.80573 398.96265,573.7489 396.26691,572.35489 C 394.54869,571.46636 393.14287,570.30094 393.14287,569.76506 C 393.14287,567.6502 391.31995,568.94907 390.67356,571.5245 C 389.37257,576.70803 383.47746,588.34007 380.34106,591.91223 C 376.00864,596.84659 366.64308,600.8449 356.85131,601.9404 C 352.47029,602.43055 348.60615,602.97083 348.26434,603.14104 C 347.92253,603.31124 346.39867,602.82429 344.87797,602.05892 z M 362.96983,595.20718 C 367.56747,593.30191 366.80283,591.34127 359.75903,586.9743 C 354.49545,583.71101 352.96796,583.27188 345.26906,582.8086 C 338.22201,582.38456 336.60437,581.98323 336.3397,580.59331 C 335.80698,577.79573 343.54243,574.46362 350.64287,574.43209 C 355.93386,574.4086 358.95068,575.2552 365.39287,578.57134 C 365.80537,578.78368 366.14287,575.81805 366.14287,571.98106 C 366.14287,566.70236 365.77786,564.86465 364.64287,564.42911 C 363.81787,564.11253 363.14287,562.99449 363.14287,561.94457 C 363.14287,560.89465 363.81787,559.47543 364.64287,558.79074 C 366.93547,556.88805 366.73448,545.92282 364.39287,545.15159 C 358.48203,543.2048 351.15894,538.84875 346.90676,534.7502 C 344.20477,532.14583 341.81944,530.52702 341.60602,531.15286 C 336.14121,547.17816 331.79242,567.55118 332.36434,574.44785 C 332.8542,580.35495 336.98203,587.45679 344.46452,595.26594 L 348.79557,599.78608 L 354.21922,598.18598 C 357.20223,597.30593 361.14,595.96547 362.96983,595.20718 z M 348.14287,559.26279 C 346.21787,558.52931 343.3861,557.65964 341.85005,557.33017 C 338.04448,556.51392 337.41307,554.19648 340.19067,551.23986 C 343.83628,547.35929 349.00288,547.8519 353.52882,552.51158 C 358.02712,557.14281 358.41711,560.83577 354.39287,560.69356 C 352.88037,560.64011 350.06787,559.99627 348.14287,559.26279 z M 318.96242,529.67908 C 318.72834,528.13219 316.97129,526.90034 312.39287,525.07323 C 307.24466,523.01873 306.14287,522.171 306.14287,520.26435 C 306.14287,518.45309 306.84973,517.80808 309.39287,517.29872 C 311.18037,516.9407 314.10537,516.19505 315.89287,515.64171 L 319.14287,514.63564 L 319.14287,497.19286 L 319.14287,479.75009 L 315.39287,481.63333 C 308.02979,485.33104 300.93142,487.0539 293.05948,487.0539 L 285.28447,487.0539 L 287.76386,492.67232 C 291.17084,500.3927 299.77091,516.39209 303.13459,521.2677 C 306.84942,526.6523 309.02814,528.49451 313.70918,530.20903 C 319.00885,532.15013 319.33143,532.11759 318.96242,529.67908 z M 297.80954,506.12407 C 296.43996,504.75449 297.21307,499.97122 299.21545,497.4256 C 300.98115,495.18088 302.05464,494.79276 306.46545,494.80439 C 314.03898,494.82437 316.14287,495.60352 316.14287,498.38832 C 316.14287,500.1404 315.43076,500.92409 313.39287,501.41475 C 311.88037,501.77891 308.52033,503.13748 305.92611,504.4338 C 301.08438,506.85319 298.97743,507.29196 297.80954,506.12407 z M 331.74372,520.31662 C 334.00171,518.83713 339.21619,512.19452 337.55996,512.90744 C 337.05556,513.12456 334.39287,514.48644 331.64287,515.93384 C 328.89287,517.38125 324.61787,519.17272 322.14287,519.9149 L 317.64287,521.26431 L 320.64287,521.94417 C 324.47481,522.81257 328.9317,522.15913 331.74372,520.31662 z "
         id="path2184" />
      <path
         style="fill:#d8d8d8"
         d="M 342.60963,599.55257 C 336.29389,593.99323 328.41858,581.8121 327.59668,576.33131 C 327.14637,573.3284 327.62015,568.39741 329.0339,561.37306 C 330.19383,555.60982 331.14287,550.66907 331.14287,550.39362 C 331.14287,550.11816 329.50396,550.57757 327.50084,551.41453 C 322.80961,553.37465 320.48207,552.72136 314.51614,547.76998 C 308.54749,542.81635 306.16583,542.13394 302.03613,544.1941 C 297.36991,546.52192 294.93075,546.297 295.32332,543.5751 C 295.73232,540.73927 301.57167,536.79074 305.35649,536.79074 C 308.98319,536.79074 311.36325,538.03726 317.34888,543.07157 C 321.02227,546.16112 322.59621,546.89377 324.52181,546.41048 C 327.0277,545.78154 333.14287,541.18139 333.14287,539.92527 C 333.14287,539.54704 328.83153,538.50413 323.56212,537.60769 C 306.44155,534.69511 302.50075,531.29802 291.24434,509.7487 C 284.65178,497.12786 282.32124,494.79074 276.32853,494.79074 C 274.0506,494.79074 272.80078,495.67687 270.60041,498.85201 C 265.91022,505.61995 262.65313,507.79074 257.18859,507.79074 C 252.22982,507.79074 250.89182,506.93384 249.67901,502.98133 C 248.97989,500.70289 249.04915,500.68082 254.84238,501.33625 L 260.71438,502.0006 L 266.51319,495.39567 C 271.98242,489.16613 272.55801,488.79074 276.64057,488.79074 L 280.96914,488.79074 L 279.84204,485.80471 C 278.30409,481.73021 279.60647,480.64834 284.64375,481.81601 C 294.11212,484.01083 304.76389,482.07718 313.39537,476.59664 C 318.73975,473.20323 326.23527,465.27955 329.48286,459.5902 C 332.20764,454.81674 334.66313,454.71686 336.84426,459.29074 C 337.76223,461.21574 338.76745,462.77341 339.07808,462.75222 C 339.38872,462.73103 340.54287,461.28735 341.64287,459.54404 C 343.94102,455.90187 346.33905,455.02973 354.43832,454.89042 C 359.17976,454.80887 360.68019,454.34433 362.68832,452.33619 C 364.03832,450.98619 365.14287,449.27619 365.14287,448.53619 C 365.14287,446.15432 367.2715,444.78922 369.29607,445.87273 C 371.64227,447.12838 371.62585,448.93557 369.22603,453.58058 C 366.57581,458.71025 363.93447,460.00256 354.68793,460.69349 C 347.45349,461.23407 346.57533,461.52797 345.43369,463.79074 C 343.25805,468.10293 343.94327,474.18349 347.63748,483.34699 C 355.58315,503.05619 356.09147,509.627 350.53046,520.7428 L 346.91806,527.96358 L 350.11963,531.26676 C 359.67252,541.12284 376.59651,544.21739 392.878,539.0851 C 399.90568,536.86982 400.58163,537.87149 398.00542,546.68333 C 394.96628,557.07862 394.72,560.07232 396.60421,563.71598 L 398.28523,566.96672 L 407.7087,566.26021 C 418.50409,565.45085 420.88473,566.33714 423.66759,572.20158 C 424.95387,574.91223 425.05541,576.08564 424.15006,577.77731 C 423.24717,579.46438 422.70756,579.67436 421.61186,578.765 C 420.84651,578.12982 419.946,576.74583 419.61073,575.68947 C 419.27545,574.6331 417.64785,573.069 415.99384,572.21367 C 413.5363,570.94283 412.07778,570.85343 408.01548,571.72464 C 400.26918,573.38592 397.3346,573.07338 394.55196,570.29074 C 393.17696,568.91574 391.88231,567.79074 391.67497,567.79074 C 391.46762,567.79074 390.74885,569.47824 390.0777,571.54074 C 387.55243,579.30112 381.64429,590.00846 378.14119,593.17329 C 373.98747,596.92593 362.80016,601.1314 353.32195,602.5032 L 347.00103,603.41803 L 342.60963,599.55257 z M 358.53506,597.67717 C 373.49541,593.22859 377.9688,589.40703 382.15377,577.50006 C 384.87242,569.765 384.74718,568.12434 381.39287,567.53262 C 375.75664,566.53835 365.60886,563.56384 364.64287,562.62287 C 363.28796,561.30305 367.27361,558.13146 372.10687,556.68338 C 376.67718,555.31408 380.89433,556.92657 382.84886,560.79074 C 383.96507,562.99752 384.11512,562.285 384.12813,554.71587 L 384.14287,546.14099 L 376.75399,545.95024 C 365.09783,545.64931 353.11535,540.59033 345.68219,532.83178 C 344.07977,531.15921 342.46119,529.79074 342.08536,529.79074 C 340.40483,529.79074 331.20585,566.05619 331.16451,572.8444 C 331.13548,577.61118 334.92538,584.92558 341.64589,593.07317 C 345.30455,597.50873 347.9071,599.79074 349.30705,599.79074 C 350.47316,599.79074 354.62576,598.83963 358.53506,597.67717 z M 362.14287,587.31399 C 355.67086,583.27596 349.30261,581.53889 342.57159,581.97553 C 338.65223,582.22978 337.64533,581.96346 337.36547,580.59858 C 336.87391,578.20124 342.25704,575.68141 349.21858,575.05016 C 353.82455,574.6325 355.87076,574.96469 359.49286,576.71812 C 367.43429,580.5625 374.67347,590.83631 369.39287,590.76815 C 368.43037,590.75573 365.16787,589.20136 362.14287,587.31399 z M 352.14287,559.79919 C 351.31787,559.27172 348.23486,558.29725 345.29174,557.63369 C 342.34861,556.97013 339.68576,555.7631 339.37428,554.95139 C 338.67648,553.13297 343.48448,548.79074 346.19575,548.79074 C 349.0959,548.79074 356.30232,555.69119 355.94142,558.12264 C 355.58693,560.51095 354.20802,561.11956 352.14287,559.79919 z M 336.09029,530.04074 C 337.78568,523.93591 337.58143,523.7092 332.43643,525.98508 C 328.27984,527.82374 327.05945,527.94227 321.99062,526.99962 C 313.71743,525.46106 306.90632,522.25755 307.32176,520.10033 C 307.56723,518.8257 309.76191,517.8859 315.60251,516.55435 C 323.64558,514.72066 329.43549,511.93973 335.05514,507.21111 C 337.96227,504.76492 338.14287,504.20477 338.14287,497.63446 C 338.14287,490.86529 338.07538,490.6761 335.89287,491.32719 C 334.65537,491.69637 331.76274,493.07669 329.4648,494.39458 C 327.16686,495.71247 324.79024,496.79074 324.18341,496.79074 C 322.00029,496.79074 321.98519,493.74792 324.14616,489.28395 C 326.71931,483.96853 330.60095,481.53236 335.0722,482.42661 C 338.09915,483.032 338.14287,482.98253 338.14287,478.95276 C 338.14287,475.58368 335.0459,465.36228 333.58075,463.89568 C 333.36368,463.67839 330.3023,466.60339 326.77768,470.39568 C 316.26092,481.71112 304.72602,487.07082 291.64287,486.72108 C 288.34287,486.63287 285.28352,486.61245 284.84432,486.67572 C 283.26613,486.90304 301.40797,520.89006 305.54899,525.46396 C 309.09116,529.37641 310.70622,530.30521 316.66799,531.85836 C 320.50417,532.85776 326.20922,533.70139 329.34587,533.73309 L 335.04886,533.79074 L 336.09029,530.04074 z M 298.14287,502.4799 C 298.14287,497.2583 302.08468,494.38391 308.11902,495.20523 C 312.84436,495.84839 315.5493,497.62005 314.35671,499.29074 C 313.55718,500.41078 303.86506,504.73143 300.39287,505.51569 C 298.38719,505.96871 298.14287,505.63907 298.14287,502.4799 z M 332.81615,520.39283 C 335.69467,517.95097 339.816,511.79074 338.57113,511.79074 C 338.19449,511.79074 335.58155,513.08723 332.7646,514.67183 C 329.94765,516.25644 325.84287,518.09062 323.64287,518.74779 C 316.48709,520.88533 316.43255,520.91893 318.64287,521.82779 C 319.74287,522.2801 322.74584,522.6818 325.31615,522.72046 C 328.8625,522.77379 330.67106,522.21251 332.81615,520.39283 z "
         id="path2182" />
      <path
         style="fill:#c7c7c7"
         d="M 345.41217,602.17051 C 343.35641,601.27924 331.9496,586.55905 330.00714,582.29074 C 327.64276,577.0953 327.66852,568.61536 330.08109,557.94698 L 331.96797,549.60321 L 329.80542,550.27771 C 322.19305,552.652 320.32031,552.24822 313.78399,546.82338 C 308.5077,542.44432 304.11217,541.59037 300.584,544.25894 C 297.68545,546.45129 296.14287,546.09547 296.14287,543.23451 C 296.14287,541.16987 297.00057,540.29888 300.60286,538.70542 C 306.27653,536.19568 308.89809,536.84024 315.76487,542.43331 C 318.71859,544.83915 322.17343,546.79074 323.4787,546.79074 C 325.96684,546.79074 334.14287,541.45389 334.14287,539.82978 C 334.14287,539.30815 332.45537,538.6185 330.39287,538.29722 C 308.97649,534.96111 305.73066,533.21326 297.88268,520.79074 C 295.97163,517.76574 292.37248,511.235 289.88457,506.27799 C 286.13734,498.81184 284.73595,496.96712 281.71806,495.52799 C 279.71439,494.5725 277.27019,493.79074 276.28652,493.79074 C 275.30285,493.79074 271.91551,496.7141 268.7591,500.28709 C 265.60269,503.86008 261.91983,507.0596 260.57495,507.39714 C 256.25542,508.48128 251.55969,507.00097 250.25837,504.14489 C 248.68375,500.68898 249.36199,500.24021 254.04097,501.64206 C 259.40359,503.24874 262.0858,502.00096 266.51153,495.84068 C 270.5601,490.20535 273.94674,488.36912 278.46238,489.36092 C 281.0409,489.92725 281.35758,489.76721 280.85403,488.15221 C 278.59981,480.9225 278.27438,481.48164 284.24643,482.32348 C 304.22578,485.13983 318.95894,477.80878 330.03279,459.54074 C 331.28305,457.47824 332.7259,455.79074 333.23913,455.79074 C 334.02736,455.79074 336.79984,459.64157 338.6389,463.29074 C 338.91711,463.84277 339.44008,463.62309 339.80633,462.80036 C 340.17123,461.98064 341.71162,460.06814 343.22941,458.55036 C 345.63202,456.14775 346.76909,455.79074 352.01889,455.79074 C 359.92287,455.79074 362.625,454.4239 365.09059,449.17858 C 366.52076,446.13603 367.5753,445.01945 368.63471,445.42598 C 372.33454,446.84574 368.52372,456.93504 363.57731,458.81567 C 362.16676,459.35196 358.32151,459.79074 355.03232,459.79074 C 347.66569,459.79074 344.64431,462.21507 343.66076,468.91518 C 343.13907,472.46899 343.59349,474.67804 346.08041,480.67768 C 350.7899,492.03924 354.14287,503.45203 354.14287,508.12057 C 354.14287,510.8932 352.93885,514.85953 350.64287,519.65044 C 348.71787,523.66724 347.14287,527.56192 347.14287,528.30528 C 347.14287,530.24096 354.94835,536.36845 360.72253,538.96563 C 367.79273,542.14575 382.1681,542.61171 391.46781,539.96219 C 396.98617,538.38999 398.39072,538.27304 398.80448,539.3513 C 399.08594,540.08475 398.12511,544.82505 396.66932,549.8853 C 393.81042,559.82265 394.08177,562.61549 398.27481,566.41014 C 400.01184,567.98214 400.85199,568.04443 405.99363,566.98244 C 413.53649,565.42449 415.63824,565.47842 419.20218,567.32141 C 422.3513,568.94988 425.10381,574.13792 424.35876,577.04074 C 423.89961,578.82968 421.14287,579.53837 421.14287,577.86747 C 421.14287,577.35966 419.93152,575.50458 418.45098,573.74507 C 415.79419,570.58765 415.68011,570.55616 409.70098,571.32964 C 399.53693,572.6445 397.36921,572.38177 394.32596,569.46615 L 391.53549,566.79271 L 388.16888,575.04172 C 381.49337,591.39837 377.75776,595.3001 364.64287,599.61389 C 358.42611,601.65872 347.56284,603.10294 345.41217,602.17051 z M 360.14287,597.56349 C 370.36123,594.33968 375.87866,591.17048 378.48937,587.02532 C 382.73491,580.28445 393.14287,550.83971 393.14287,545.56967 C 393.14287,544.47837 391.814,544.40863 386.09142,545.19957 C 371.54855,547.20962 357.53031,543.05343 347.7936,533.84485 C 344.85441,531.06509 342.17466,528.79074 341.83859,528.79074 C 340.11356,528.79074 331.114,564.56941 331.01174,571.83402 C 330.90336,579.53342 334.96902,586.90448 345.48047,598.06592 C 348.38855,601.15382 348.80843,601.13943 360.14287,597.56349 z M 361.67221,586.50019 C 355.27237,582.63545 354.04404,582.26251 346.67221,581.94595 C 337.61118,581.55685 335.83564,580.69338 339.35492,578.38746 C 343.21483,575.85834 350.98963,574.76019 356.0872,576.02409 C 361.56843,577.38313 371.59282,586.45462 370.56711,589.12758 C 369.71566,591.34642 369.6798,591.33582 361.67221,586.50019 z M 372.43809,564.86342 C 369.02546,563.95652 365.92383,562.90503 365.54559,562.52679 C 363.29775,560.27895 372.87229,556.00404 377.53409,557.17408 C 382.16755,558.33701 384.69002,567.02468 380.28588,566.65154 C 379.38223,566.57497 375.85072,565.77032 372.43809,564.86342 z M 349.14287,558.22787 C 347.21787,557.49954 344.94138,556.87823 344.084,556.84718 C 343.22662,556.81614 341.69565,556.18421 340.68184,555.4429 C 338.90565,554.14411 338.91689,554.01672 340.99071,551.9429 C 344.40198,548.53163 348.74107,549.1007 352.758,553.48616 C 358.20614,559.43414 356.89082,561.15936 349.14287,558.22787 z M 337.55786,527.96557 C 339.36851,522.29084 339.81559,521.68618 341.9054,522.08568 C 343.77827,522.4437 344.59574,521.82153 346.07684,518.91085 C 349.99313,511.21447 350.21884,508.33866 347.68275,498.44999 C 346.39079,493.4124 343.44655,484.79074 341.14,479.29074 C 338.83345,473.79074 336.24725,467.60324 335.39288,465.54074 C 334.53852,463.47824 333.55477,461.79074 333.20679,461.79074 C 332.8588,461.79074 331.81332,463.07861 330.88349,464.65268 C 328.00685,469.52245 316.60233,479.42575 310.47591,482.37393 C 305.55,484.7444 303.04883,485.24599 294.39287,485.59926 C 288.60777,485.83536 284.14287,486.44698 284.14287,487.00335 C 284.14287,488.88543 300.20247,519.31758 303.7299,524.1198 C 305.84241,526.99575 308.75889,529.56801 310.9409,530.47971 C 316.46403,532.78742 326.09336,534.70092 331.09127,534.4839 L 335.53967,534.29074 L 337.55786,527.96557 z M 315.51678,524.73634 C 304.75647,521.32515 305.04321,519.31294 316.64287,516.83393 C 323.37226,515.39576 328.82828,512.80156 337.64287,506.84897 C 344.365,502.30944 347.14287,501.72212 347.14287,504.8404 C 347.14287,509.76466 338.04678,522.65939 332.82531,525.13714 C 328.32394,527.27318 323.14041,527.15315 315.51678,524.73634 z M 330.71437,522.18979 C 334.09387,520.58611 341.02722,511.58552 339.32115,511.01683 C 338.82232,510.85056 335.76563,512.27154 332.52853,514.17458 C 329.29141,516.07762 324.61787,518.19563 322.14287,518.88127 C 315.97596,520.58968 315.2813,521.49355 319.25674,522.63668 C 324.26776,524.0776 326.95716,523.9727 330.71437,522.18979 z M 298.80954,505.12407 C 297.46321,503.77775 298.19817,499.73544 300.14287,497.79074 C 302.27844,495.65517 310.31229,494.97885 313.03859,496.70513 C 314.69033,497.751 313.80135,500.79074 311.84373,500.79074 C 311.09468,500.79074 308.26806,501.91386 305.56235,503.28656 C 300.20621,506.0039 299.79992,506.11446 298.80954,505.12407 z M 304.64287,499.79074 C 304.98279,499.24074 304.8109,498.79074 304.2609,498.79074 C 303.7109,498.79074 302.98279,499.24074 302.64287,499.79074 C 302.30295,500.34074 302.47484,500.79074 303.02484,500.79074 C 303.57484,500.79074 304.30295,500.34074 304.64287,499.79074 z M 323.15932,494.04074 C 323.16837,493.07824 324.19113,490.49797 325.43213,488.3068 C 328.24134,483.34671 332.12055,481.70655 335.95387,483.85813 C 340.10758,486.18955 339.93258,488.56341 335.46983,490.424 C 333.365,491.30154 330.4484,492.86805 328.9885,493.90513 C 325.66336,496.26724 323.13784,496.326 323.15932,494.04074 z M 332.14287,487.23172 C 332.14287,486.98918 331.69287,486.79074 331.14287,486.79074 C 330.59287,486.79074 330.14287,487.2673 330.14287,487.84976 C 330.14287,488.43222 330.59287,488.63066 331.14287,488.29074 C 331.69287,487.95082 332.14287,487.47426 332.14287,487.23172 z "
         id="path2180" />
      <path
         style="fill:#b7b7b7"
         d="M 340.97722,596.81232 C 337.94464,593.40787 333.9288,588.08599 332.05315,584.98591 C 328.99076,579.92438 328.65207,578.63232 328.73303,572.32007 C 328.78261,568.45394 329.62071,561.77884 330.59547,557.48652 C 331.57023,553.1942 332.13398,549.44851 331.84825,549.16278 C 331.56251,548.87705 329.95926,549.35145 328.28546,550.217 C 323.3906,552.74823 320.90954,552.14298 314.24052,546.79074 C 310.81396,544.04074 307.24605,541.79074 306.31183,541.79074 C 305.37761,541.79074 302.92098,542.69774 300.85265,543.8063 C 297.49538,545.60569 297.02624,545.65039 296.47851,544.22303 C 295.50699,541.69129 299.40758,538.62635 304.28086,538.09222 C 307.84471,537.70162 309.2833,538.08254 312.14287,540.17399 C 322.79731,547.96652 323.10823,548.12755 325.44469,547.06299 C 328.94079,545.47006 334.14287,540.76858 334.14287,539.20185 C 334.14287,538.28006 333.0159,537.78472 330.89287,537.77338 C 325.76953,537.746 314.28994,535.04035 309.53888,532.7404 C 304.15666,530.13491 300.15453,524.78625 292.07008,509.39414 C 287.61309,500.90843 284.99999,497.06488 282.75862,495.69814 C 278.29571,492.97675 274.43655,493.24481 271.8172,496.45814 C 264.49048,505.44634 262.60384,506.79074 257.31722,506.79074 C 253.221,506.79074 251.95954,506.36708 250.69957,504.56823 C 248.57821,501.53956 248.74166,500.80673 251.39287,501.45988 C 259.70312,503.50719 259.8889,503.44476 266.46134,496.39632 C 272.41202,490.01466 272.82026,489.76754 277.39287,489.77892 C 280.00537,489.78542 282.14287,489.54339 282.14287,489.24108 C 282.14287,488.93877 281.46952,487.38931 280.64654,485.79783 C 278.72893,482.0896 279.85397,481.4374 285.65048,482.89697 C 297.58206,485.90138 312.53071,480.53973 322.62695,469.6346 C 325.75906,466.25154 329.03981,461.97769 329.9175,460.13716 C 332.05987,455.64455 334.42595,455.87449 336.64287,460.79074 C 337.63493,462.99074 338.74493,464.79074 339.10953,464.79074 C 339.47413,464.79074 340.52839,463.20552 341.45231,461.26802 C 343.48008,457.01575 346.35012,455.79074 354.28489,455.79074 C 359.59621,455.79074 360.63732,455.45014 363.21979,452.86766 C 364.82749,451.25997 366.14287,449.03653 366.14287,447.92668 C 366.14287,445.27147 367.61353,444.44799 369.11801,446.26079 C 370.89372,448.40039 369.49246,453.08163 366.10475,456.32726 C 363.5278,458.79614 362.16032,459.2186 355.05604,459.74062 C 346.11559,460.39756 344.69055,461.35441 343.54306,467.47108 C 342.67853,472.07943 343.27997,474.69385 348.04699,487.04932 C 352.74686,499.23075 354.48719,506.90949 353.54111,511.29074 C 353.18482,512.94074 351.38002,517.30595 349.53046,520.9912 C 347.6809,524.67646 346.4336,528.3848 346.75869,529.23197 C 347.65959,531.57968 356.5686,537.75286 362.42367,540.08646 C 369.27077,542.81544 383.09874,542.98098 391.52618,540.43485 C 394.87351,539.42354 397.78544,539.03331 398.28166,539.52953 C 398.77788,540.02575 398.07385,544.00988 396.64835,548.77244 C 393.59631,558.96925 393.57068,560.12885 396.29984,564.54472 L 398.45681,568.03477 L 405.04984,567.2369 C 414.40351,566.10496 418.05392,566.40026 420.34569,568.47429 C 422.99755,570.87419 424.88519,574.86956 424.39296,577.04074 C 423.8046,579.63599 422.39028,579.16985 420.65162,575.80767 C 418.33971,571.33692 414.17466,569.54298 408.9207,570.755 C 401.24936,572.52469 397.3109,572.07509 394.56916,569.1167 C 393.12483,567.55825 391.7485,566.82816 391.2701,567.3667 C 390.81864,567.87492 389.01111,571.89074 387.25336,576.29074 C 383.41322,585.9034 379.72762,591.48006 375.19685,594.53335 C 371.22827,597.20777 358.40674,601.42154 351.41591,602.34891 L 346.49101,603.00222 L 340.97722,596.81232 z M 358.53506,598.67717 C 367.09694,596.13122 374.31261,592.59829 377.1325,589.5715 C 380.93438,585.49066 385.38121,574.82 391.2101,555.79074 C 395.10084,543.08886 395.07992,542.78376 390.39287,543.87219 C 383.57179,545.4562 370.80812,544.93115 363.8437,542.78006 C 357.42927,540.79884 347.59894,534.42327 343.76959,529.76077 C 341.34047,526.80315 341.26819,526.94488 336.3584,544.2943 C 331.66415,560.88209 329.70863,571.66253 330.56547,576.22985 C 331.85515,583.10445 345.42684,600.79074 349.41242,600.79074 C 350.52057,600.79074 354.62576,599.83963 358.53506,598.67717 z M 362.64287,586.60553 C 355.5548,582.144 349.71948,580.54832 343.30354,581.31715 C 338.51383,581.89111 337.99996,581.77135 338.31149,580.15366 C 338.95831,576.79499 351.76022,574.55416 357.60537,576.77648 C 360.89624,578.02767 370.14287,586.62056 370.14287,588.42758 C 370.14287,590.53405 368.09296,590.03604 362.64287,586.60553 z M 359.14287,581.32592 C 359.14287,581.07027 358.13037,580.37045 356.89287,579.77076 C 354.73224,578.72372 354.71998,578.74218 356.584,580.23557 C 358.62426,581.87016 359.14287,582.09114 359.14287,581.32592 z M 376.14287,565.22126 C 374.21787,564.49656 371.46047,563.87823 370.01531,563.84718 C 368.57016,563.81614 366.85082,563.14376 366.19455,562.35301 C 365.22033,561.17915 365.59244,560.60962 368.22207,559.24978 C 373.12699,556.71335 378.01854,556.91897 380.31762,559.75822 C 382.27071,562.17018 382.45853,565.96899 380.64287,566.33649 C 380.09287,566.44782 378.06787,565.94597 376.14287,565.22126 z M 377.60016,560.72164 C 376.85757,559.5201 374.14287,559.50892 374.14287,560.70741 C 374.14287,561.79112 376.31323,562.70761 377.40918,562.0867 C 377.83065,561.84791 377.9166,561.23364 377.60016,560.72164 z M 350.14287,558.31668 C 348.76787,557.54492 345.95537,556.62131 343.89287,556.26421 C 339.6271,555.52565 339.0504,553.66934 342.36538,551.34744 C 345.61058,549.07441 347.64527,549.41494 351.60807,552.89433 C 357.13595,557.74787 356.08155,561.64992 350.14287,558.31668 z M 348.14287,553.29074 C 347.45818,552.46574 346.50308,551.79074 346.02042,551.79074 C 345.53777,551.79074 345.14287,552.46574 345.14287,553.29074 C 345.14287,554.15292 346.04536,554.79074 347.26531,554.79074 C 349.03855,554.79074 349.18294,554.54394 348.14287,553.29074 z M 337.56619,529.29074 C 339.57686,523.01828 340.97328,521.22115 342.58451,522.83238 C 344.24644,524.49432 344.80391,523.93743 347.50631,517.91569 C 351.07163,509.97109 350.90955,504.80338 346.70653,492.41739 C 342.67735,480.54367 334.8135,462.51428 333.46813,462.06583 C 332.95299,461.89411 330.24077,464.61221 327.44099,468.10604 C 322.09263,474.78023 314.11348,480.75755 306.92212,483.47709 C 304.32129,484.46064 299.00522,485.17595 293.36843,485.30083 C 288.26748,485.41383 283.88179,485.71849 283.62244,485.97784 C 282.86168,486.7386 296.94181,514.69507 301.65943,521.79074 C 307.43493,530.47757 311.91858,532.86173 326.14287,534.80972 C 335.26409,536.05886 335.42094,535.98309 337.56619,529.29074 z M 320.64287,525.77464 C 314.64425,524.57946 308.14287,521.73842 308.14287,520.31227 C 308.14287,519.56 310.66529,518.56558 314.39287,517.8483 C 322.03215,516.37832 329.0528,513.2846 337.00637,507.88344 C 346.1327,501.68586 348.27429,502.66352 344.0098,511.08058 C 340.58166,517.84689 336.06225,522.92267 331.70267,524.90282 C 327.28795,526.90802 326.60252,526.96205 320.64287,525.77464 z M 331.21225,522.25486 C 334.35066,520.63193 340.14287,513.42352 340.14287,511.1407 C 340.14287,509.31298 340.23616,509.28146 332.82023,513.61508 C 329.2208,515.71847 323.75836,518.04335 320.68147,518.78148 C 317.60459,519.51961 315.24554,520.59875 315.43914,521.17956 C 316.31845,523.8175 326.80763,524.53258 331.21225,522.25486 z M 298.79413,504.32432 C 297.86433,501.90131 299.85047,497.88109 302.59514,496.63053 C 304.27676,495.86434 306.47222,495.78701 309.34401,496.39283 C 313.52917,497.2757 314.58398,498.68901 311.97009,499.91144 C 308.4521,501.55669 300.57227,505.28003 300.01608,505.55989 C 299.67134,505.73335 299.12147,505.17734 298.79413,504.32432 z M 305.63885,498.78424 C 304.83106,497.4772 302.14287,498.74493 302.14287,500.43291 C 302.14287,501.55781 302.57355,501.63061 304.17088,500.77575 C 305.28628,500.1788 305.94687,499.28263 305.63885,498.78424 z M 323.51936,494.32949 C 323.21096,493.5258 324.25124,490.9383 325.8311,488.57949 C 328.10555,485.18363 329.39337,484.22405 332.01677,483.97041 C 336.0845,483.57712 339.77313,486.3264 338.01689,488.44253 C 337.40149,489.18405 336.36618,489.79074 335.71621,489.79074 C 335.06623,489.79074 332.4057,491.14074 329.80392,492.79074 C 324.34541,496.25243 324.26484,496.27215 323.51936,494.32949 z M 332.77164,487.08618 C 331.94738,486.26192 329.14287,487.58223 329.14287,488.79454 C 329.14287,489.5341 329.78233,489.51888 331.22852,488.7449 C 332.37562,488.13099 333.07003,487.38457 332.77164,487.08618 z "
         id="path2178" />
      <path
         style="fill:#a8a8a8"
         d="M 340.78237,595.93964 C 334.61554,588.87604 330.78848,582.96254 329.68406,578.79074 C 329.32004,577.41574 330.38371,578.69652 332.04776,581.63691 C 335.65566,588.0121 345.58031,600.36089 347.77207,601.20195 C 352.43544,602.99145 374.3367,594.0253 378.43865,588.64737 C 382.61925,583.16632 391.11003,560.658 394.71874,545.49023 L 395.38504,542.68973 L 390.01395,543.32089 C 387.05986,543.66802 384.13151,544.107 383.50652,544.2964 C 380.79563,545.11789 365.16398,542.85508 360.04804,540.9006 C 356.60281,539.58438 352.06492,536.60188 348.2371,533.13789 C 343.88502,529.19949 341.70526,527.82835 340.96814,528.56547 C 340.38907,529.14454 338.82463,533.59461 337.49159,538.45453 C 332.96822,554.94558 331.32361,560.29435 331.23871,558.79074 C 331.19213,557.96574 331.62433,555.59719 332.19916,553.5273 C 333.6437,548.32567 332.75002,547.50638 328.21181,549.87182 C 323.28168,552.44155 320.88896,551.82454 314.05954,546.22238 C 308.09542,541.33003 304.81678,540.68887 300.07793,543.48817 C 296.73683,545.46181 295.51849,544.82592 297.07362,541.92014 C 298.37399,539.49037 304.24489,537.66114 308.20247,538.45266 C 309.75678,538.76352 313.34097,540.99176 316.16733,543.4043 C 318.9937,545.81684 322.33108,547.79074 323.58373,547.79074 C 324.83639,547.79074 327.99947,545.90864 330.61281,543.60829 C 335.00812,539.73938 335.22924,539.32707 333.56247,538.10829 C 332.57145,537.38364 330.15912,536.77471 328.20174,536.75512 C 323.41481,536.70721 314.06496,534.40671 309.43802,532.13837 C 304.54015,529.73721 299.94885,523.49823 292.29062,508.8373 C 286.59598,497.93546 285.70093,496.75521 281.63553,494.78719 C 275.91239,492.01666 274.04467,492.68212 269.07702,499.26173 C 266.86755,502.18816 263.72105,505.13704 262.08481,505.81479 C 258.39042,507.34506 252.08503,506.43213 250.39615,504.12244 C 248.27927,501.22743 248.96967,500.81835 253.35887,502.36695 C 258.90158,504.32253 262.2362,502.96889 266.25102,497.13356 C 270.39555,491.10968 273.26206,489.40926 278.16397,490.06675 C 281.45528,490.5082 282.14287,490.30581 282.14287,488.89558 C 282.14287,487.95792 281.63312,486.68099 281.01009,486.05796 C 279.43344,484.48131 280.6872,481.67865 282.63482,482.42602 C 283.64405,482.8133 283.98665,483.70759 283.59659,484.93655 C 283.20415,486.17304 285.4278,491.85582 289.90883,501.06813 C 297.94787,517.59517 302.78391,525.46946 307.15277,529.14562 C 311.33009,532.6606 320.0029,535.0528 329.04319,535.18359 L 336.44891,535.29074 L 338.15198,529.29074 C 339.71294,523.79141 340.0768,523.3066 342.51247,523.48085 C 344.77415,523.64265 345.57035,522.89809 347.85919,518.48085 C 352.64833,509.2383 350.78164,497.49147 341.17747,476.43369 C 339.63652,473.05507 337.44866,468.15324 336.31554,465.54074 C 335.18242,462.92824 333.80165,460.79074 333.24714,460.79074 C 332.69264,460.79074 330.88588,462.75737 329.23212,465.16102 C 323.25053,473.85497 312.53271,481.73823 304.64287,483.24714 C 302.11158,483.73124 302.2293,483.59216 305.39635,482.35695 C 314.75479,478.70699 326.21827,468.53267 330.54017,460.04074 C 331.4499,458.25324 332.62353,456.79074 333.14823,456.79074 C 333.67292,456.79074 335.02051,458.59074 336.14287,460.79074 C 337.26523,462.99074 338.60326,464.79074 339.11628,464.79074 C 339.62929,464.79074 340.7926,463.22379 341.70141,461.30863 C 343.59435,457.31955 347.44109,455.80542 355.70578,455.79632 C 359.93816,455.79166 361.18835,455.33963 363.32696,453.04074 C 364.73402,451.52824 366.19441,448.98301 366.57228,447.38468 C 367.20191,444.72143 367.39293,444.61223 368.85845,446.07775 C 370.27409,447.49339 370.29602,448.10142 369.04955,451.37641 C 366.88098,457.07413 363.51181,459.00326 354.7471,459.56575 C 344.92598,460.19603 343.63439,461.4872 343.66532,470.64401 C 343.68372,476.08896 344.46442,479.25534 347.98321,488.15645 C 350.93309,495.61847 352.43727,501.10037 352.78505,505.65645 C 353.25059,511.75521 353.00295,512.88255 349.71717,519.62223 C 347.75131,523.65454 346.14287,527.53968 346.14287,528.25586 C 346.14287,530.38355 353.98541,536.82468 360.02286,539.65557 C 365.11397,542.04274 366.72513,542.28409 377.14287,542.22013 C 385.394,542.16946 389.88761,541.67205 393.04886,540.45945 C 395.47215,539.52991 397.70807,539.02261 398.01756,539.3321 C 398.32705,539.64159 397.74128,542.9089 396.71584,546.59278 C 393.9796,556.42267 393.73073,560.09307 395.56054,563.63153 C 397.81105,567.98353 400.32044,569.1132 404.90744,567.8393 C 410.36767,566.32288 417.37085,566.5617 419.92608,568.35144 C 422.88281,570.42242 425.22048,575.04714 424.16984,576.7471 C 423.54817,577.75299 422.33151,577.02204 419.26917,573.80285 C 415.48826,569.82829 414.92408,569.56814 411.41918,570.18314 C 399.42275,572.28813 398.71261,572.22987 394.83172,568.82241 L 391.17967,565.61587 L 390.20577,567.9533 C 389.67012,569.23889 387.84574,573.71606 386.15158,577.90256 C 382.29873,587.42346 377.27953,593.39909 370.69169,596.30837 C 365.03181,598.80786 351.0479,602.82764 348.38171,602.72155 C 347.42535,602.68349 344.00565,599.63163 340.78237,595.93964 z M 362.64287,586.20466 C 356.02844,581.60647 348.89089,579.5533 343.69807,580.75506 C 339.22637,581.78993 337.5265,581.23834 339.15188,579.27988 C 340.77703,577.3217 348.19536,576.25763 349.17469,577.84223 C 349.87708,578.97872 358.51381,582.78788 360.39287,582.78993 C 362.37149,582.79207 360.75461,580.62408 357.39287,578.7674 C 353.82026,576.79424 353.78457,576.72597 356.6383,577.32416 C 361.67983,578.38093 371.31364,587.28663 369.44102,589.15926 C 368.46832,590.13195 367.99848,589.92775 362.64287,586.20466 z M 329.22182,568.37407 C 329.1784,567.31991 329.41474,566.72928 329.74704,567.06157 C 330.07933,567.39387 330.11485,568.25637 329.82598,568.97824 C 329.50676,569.77597 329.2698,569.53902 329.22182,568.37407 z M 375.14287,564.23857 C 373.21787,563.50435 370.40537,562.87823 368.89287,562.84718 C 365.09346,562.7692 365.44986,560.97824 369.61075,559.23971 C 374.77638,557.08137 377.70804,557.42249 380.09725,560.45987 C 383.69049,565.02793 381.53089,566.67506 375.14287,564.23857 z M 378.14287,561.91318 C 378.14287,561.43053 377.46787,560.47543 376.64287,559.79074 C 375.45159,558.80206 374.83642,558.80018 373.65388,559.7816 C 372.83494,560.46127 372.41149,561.41637 372.7129,561.90405 C 373.42346,563.05376 378.14287,563.0617 378.14287,561.91318 z M 330.22182,562.37407 C 330.1784,561.31991 330.41474,560.72928 330.74704,561.06157 C 331.07933,561.39387 331.11485,562.25637 330.82598,562.97824 C 330.50676,563.77597 330.2698,563.53902 330.22182,562.37407 z M 349.14287,557.20743 C 347.26485,556.16535 347.07826,555.81656 348.39287,555.80548 C 349.35537,555.79737 350.14287,555.43074 350.14287,554.99074 C 350.14287,553.57756 347.79766,551.79074 345.94287,551.79074 C 343.9057,551.79074 343.48271,554.35769 345.39287,555.12846 C 346.08037,555.40587 345.43193,555.66837 343.95189,555.71179 C 340.51713,555.81256 339.29252,553.8857 341.68122,552.13904 C 344.91955,549.77112 348.98633,550.49591 352.19924,554.0136 C 353.81824,555.78617 355.14287,557.58617 355.14287,558.0136 C 355.14287,559.19346 351.94857,558.76427 349.14287,557.20743 z M 316.64287,524.11301 C 313.34287,523.26959 310.00048,521.96858 309.21533,521.22187 C 307.53832,519.62698 307.49035,519.64922 316.64287,517.7782 C 323.42919,516.3909 329.9598,513.33319 338.48979,507.54923 C 345.8037,502.58986 347.33996,503.49488 343.72317,510.63227 C 340.60676,516.78222 335.83821,522.37981 332.04409,524.34182 C 328.5544,526.14641 324.35471,526.08402 316.64287,524.11301 z M 332.56188,522.14638 C 335.69219,519.89085 341.67164,510.98618 340.705,510.01954 C 340.32267,509.63721 336.9619,510.99125 333.23663,513.02853 C 329.51136,515.0658 323.84817,517.41385 320.65177,518.24641 C 314.1776,519.93271 313.35449,520.41514 314.70954,521.72912 C 318.04423,524.96276 328.31988,525.20293 332.56188,522.14638 z M 299.14287,502.44573 C 299.14287,499.97064 301.92046,496.79074 304.0824,496.79074 C 304.78752,496.79074 304.30208,497.652 303.00365,498.70466 C 300.08039,501.07459 301.21678,502.53373 304.73671,500.92994 C 306.40118,500.17155 307.13478,499.21205 306.77232,498.2675 C 306.33969,497.14007 307.02615,496.79074 309.67426,496.79074 C 312.0908,496.79074 313.14287,497.24571 313.14287,498.29074 C 313.14287,499.11574 312.54413,499.79074 311.81235,499.79074 C 311.08056,499.79074 308.26806,500.91386 305.56235,502.28656 C 299.50673,505.35877 299.14287,505.36779 299.14287,502.44573 z M 324.14287,492.95735 C 324.14287,491.94899 325.6438,489.38764 327.47826,487.26548 C 330.62122,483.62962 331.01027,483.46339 334.22139,484.38433 C 339.26902,485.83197 339.08636,488.1587 333.76557,490.19073 C 331.30973,491.12862 328.75986,492.54731 328.0992,493.34337 C 326.41742,495.36978 324.14287,495.14785 324.14287,492.95735 z M 332.70174,488.36216 C 334.51901,487.02474 334.53039,486.88998 332.88013,486.25028 C 331.91063,485.87447 330.44813,486.12243 329.63013,486.80131 C 326.32047,489.54808 329.14209,490.9819 332.70174,488.36216 z M 298.4137,484.18657 C 298.74599,483.85428 299.6085,483.81876 300.33037,484.10763 C 301.1281,484.42685 300.89115,484.66381 299.7262,484.71179 C 298.67204,484.75521 298.08141,484.51887 298.4137,484.18657 z "
         id="path2176" />
      <path
         style="fill:#919191"
         d="M 347.89287,602.12846 C 348.58037,601.85105 349.70537,601.85105 350.39287,602.12846 C 351.08037,602.40587 350.51787,602.63285 349.14287,602.63285 C 347.76787,602.63285 347.20537,602.40587 347.89287,602.12846 z M 364.79786,586.962 C 363.03907,585.01856 362.59615,582.79074 363.96856,582.79074 C 364.93993,582.79074 369.14287,587.10751 369.14287,588.10519 C 369.14287,589.46741 366.41592,588.74994 364.79786,586.962 z M 339.14287,579.89773 C 339.14287,578.81448 341.612,577.79074 344.22466,577.79074 C 346.54248,577.79074 346.76026,579.33985 344.56108,580.18375 C 342.21955,581.08228 339.14287,580.91987 339.14287,579.89773 z M 421.46247,576.04074 C 419.4038,570.20765 415.14944,568.81463 405.2381,570.72832 C 400.11031,571.7184 395.58391,570.48334 394.08658,567.68556 C 393.52884,566.64341 392.41334,565.79074 391.60769,565.79074 C 389.8723,565.79074 389.71729,563.01914 391.2338,559.10584 L 392.32473,556.29074 L 394.30472,561.54351 C 396.93825,568.53008 398.7095,569.382 407.25103,567.77033 C 412.73708,566.73519 414.59543,566.73555 417.09829,567.77228 C 420.93457,569.36132 425.2501,574.34772 424.49411,576.31782 C 423.72821,578.31372 422.21589,578.1755 421.46247,576.04074 z M 378.70162,564.88579 C 378.33477,564.29223 378.47872,563.01552 379.0215,562.04866 C 379.95741,560.38151 380.04452,560.38458 380.7084,562.10796 C 381.51435,564.20013 379.77008,566.6146 378.70162,564.88579 z M 366.83672,562.15126 C 365.79413,561.10867 367.11466,559.79074 369.20189,559.79074 C 370.26943,559.79074 371.14287,560.46574 371.14287,561.29074 C 371.14287,562.77399 368.07293,563.38747 366.83672,562.15126 z M 351.42101,557.66888 C 350.80399,557.05186 350.54459,555.90744 350.84457,555.12571 C 351.2987,553.94228 351.70404,553.98862 353.26643,555.40256 C 354.29847,556.33654 355.14287,557.48097 355.14287,557.94573 C 355.14287,559.16411 352.73731,558.98518 351.42101,557.66888 z M 341.14287,553.79074 C 341.14287,553.24074 341.59287,552.79074 342.14287,552.79074 C 342.69287,552.79074 343.14287,553.24074 343.14287,553.79074 C 343.14287,554.34074 342.69287,554.79074 342.14287,554.79074 C 341.59287,554.79074 341.14287,554.34074 341.14287,553.79074 z M 313.9591,545.71802 C 307.18469,540.27733 304.03325,539.76999 299.95236,543.46315 C 297.91125,545.31033 296.58299,544.69214 297.49371,542.31886 C 298.24665,540.35673 302.27991,538.79074 306.58051,538.79074 C 309.04878,538.79074 311.47496,540.05935 316.14287,543.79074 C 319.58308,546.54074 322.53614,548.79074 322.70523,548.79074 C 326.43196,548.79074 335.14287,541.43927 335.14287,538.29414 C 335.14287,537.03496 335.86797,535.72647 336.75421,535.38639 C 337.98126,534.91552 338.20305,535.18812 337.68418,536.5294 C 337.30942,537.49814 336.74594,539.64074 336.43199,541.29074 C 335.59295,545.70037 334.29159,547.78668 332.35769,547.82254 C 331.41454,547.84004 329.76936,548.51504 328.70174,549.32254 C 324.92215,552.18128 320.73076,551.15651 313.9591,545.71802 z M 394.82385,542.30199 C 393.09092,541.03239 393.10632,540.93712 395.14922,540.28873 C 397.75778,539.4608 398.61017,540.13567 397.48453,542.13769 C 396.77461,543.40034 396.35816,543.42606 394.82385,542.30199 z M 341.89287,527.39869 C 339.107,525.28391 339.68768,523.45968 342.89082,524.26362 C 346.31681,525.12348 346.52923,525.34153 345.79779,527.24761 C 345.08147,529.11431 344.19794,529.14849 341.89287,527.39869 z M 309.39287,520.54074 C 309.62204,519.85324 310.40954,519.29074 311.14287,519.29074 C 311.8762,519.29074 312.6637,519.85324 312.89287,520.54074 C 313.14073,521.28433 312.43176,521.79074 311.14287,521.79074 C 309.85398,521.79074 309.14501,521.28433 309.39287,520.54074 z M 350.22847,515.29074 C 350.3326,513.39652 351.99923,510.20689 352.05727,511.79074 C 352.08751,512.61574 351.67603,513.96574 351.14287,514.79074 C 350.60971,515.61574 350.19823,515.84074 350.22847,515.29074 z M 342.17467,510.04074 C 342.15718,509.35324 341.39813,508.79074 340.48788,508.79074 C 338.99956,508.79074 339.01517,508.58933 340.64287,506.79074 C 342.69801,504.51984 345.14287,504.14435 345.14287,506.09961 C 345.14287,507.80586 342.21667,511.69123 342.17467,510.04074 z M 250.7143,504.21931 C 248.16834,501.67335 248.9117,500.61984 252.09321,502.26506 C 257.2619,504.93789 260.07562,504.24978 264.82298,499.1519 C 267.19892,496.60054 269.14287,494.22257 269.14287,493.86751 C 269.14287,492.01653 275.01272,490.00219 279.56567,490.29074 C 283.73284,490.55484 284.70421,491.01447 285.89393,493.28514 C 287.81379,496.94933 287.03739,497.28774 282.27961,494.8605 C 276.87538,492.10347 274.57261,492.25077 271.88626,495.52536 C 264.64543,504.3517 262.60515,505.79074 257.33195,505.79074 C 254.07781,505.79074 251.72766,505.23267 250.7143,504.21931 z M 299.69566,503.87615 C 299.37368,503.35518 299.53649,502.6655 300.05746,502.34353 C 300.57843,502.02155 301.26811,502.18436 301.59008,502.70533 C 301.91206,503.2263 301.74925,503.91598 301.22828,504.23795 C 300.70731,504.55993 300.01763,504.39712 299.69566,503.87615 z M 308.36482,498.62489 C 308.88137,497.07524 312.02382,496.81456 312.39287,498.29074 C 312.53037,498.84074 311.58025,499.44111 310.28149,499.62489 C 308.66257,499.85397 308.05993,499.53955 308.36482,498.62489 z M 348.76641,494.25208 C 347.80143,491.73739 348.0861,491.08853 349.26494,493.11574 C 349.84863,494.11949 350.11554,495.1514 349.85807,495.40887 C 349.6006,495.66634 349.10935,495.14578 348.76641,494.25208 z M 324.14287,493.49074 C 324.14287,491.549 326.19223,489.87245 327.8079,490.49244 C 328.99133,490.94657 328.94499,491.35191 327.53105,492.9143 C 325.55354,495.09942 324.14287,495.33943 324.14287,493.49074 z M 334.14287,487.29074 C 334.14287,486.28735 334.79872,485.7704 335.82176,485.96742 C 338.05168,486.39686 338.09971,488.17537 335.89287,488.60037 C 334.79827,488.81117 334.14287,488.3207 334.14287,487.29074 z M 280.78235,485.09689 C 279.65617,483.9707 280.09646,482.79074 281.64287,482.79074 C 282.46787,482.79074 283.14287,483.21418 283.14287,483.73172 C 283.14287,484.9927 281.58128,485.89582 280.78235,485.09689 z M 339.87744,472.63961 C 337.94171,468.56506 337.63872,465.79074 339.12945,465.79074 C 339.67207,465.79074 340.75115,464.27068 341.52742,462.41282 C 343.42309,457.87583 344.38934,457.41311 353.38881,456.73267 C 362.31331,456.05789 365.66197,453.87109 366.7637,447.99838 C 367.29283,445.17784 367.59067,444.83954 368.35007,446.1965 C 369.82636,448.83448 368.26777,453.50786 364.99263,456.26371 C 362.52858,458.33707 360.93772,458.79074 356.13124,458.79074 C 345.73879,458.79074 343.89742,460.44606 342.34913,471.1803 L 341.612,476.29074 L 339.87744,472.63961 z M 332.14287,458.84976 C 332.14287,458.33222 332.59287,457.63066 333.14287,457.29074 C 333.69287,456.95082 334.14287,457.37426 334.14287,458.23172 C 334.14287,459.08918 333.69287,459.79074 333.14287,459.79074 C 332.59287,459.79074 332.14287,459.3673 332.14287,458.84976 z "
         id="path2174" />
      <path
         style="fill:#707070"
         d="M 347.89287,602.12846 C 348.58037,601.85105 349.70537,601.85105 350.39287,602.12846 C 351.08037,602.40587 350.51787,602.63285 349.14287,602.63285 C 347.76787,602.63285 347.20537,602.40587 347.89287,602.12846 z M 366.21382,587.37623 C 364.63237,585.47069 365.10561,584.53164 367.04372,585.72946 C 367.78232,586.18594 368.20284,587.11082 367.9782,587.78474 C 367.68769,588.65629 367.17829,588.53834 366.21382,587.37623 z M 340.14287,579.79074 C 340.14287,579.24074 340.84443,578.79074 341.70189,578.79074 C 342.55935,578.79074 342.98279,579.24074 342.64287,579.79074 C 342.30295,580.34074 341.60139,580.79074 341.08385,580.79074 C 340.56631,580.79074 340.14287,580.34074 340.14287,579.79074 z M 422.56388,576.4455 C 422.18626,575.46144 422.3273,574.20631 422.8773,573.65631 C 424.21776,572.31585 425.24847,575.00184 424.10414,576.8534 C 423.41374,577.9705 423.11914,577.89249 422.56388,576.4455 z M 394.60954,567.32407 C 392.70287,565.41741 391.14287,562.94241 391.14287,561.82407 C 391.14287,558.57208 392.69077,559.46176 394.67027,563.8515 C 397.08744,569.21184 399.19093,570.26787 404.69183,568.88273 C 407.077,568.28213 410.51674,567.83685 412.33569,567.89321 C 414.94885,567.97418 414.38375,568.2798 409.64287,569.34958 C 400.29333,571.45929 398.50362,571.21816 394.60954,567.32407 z M 367.4137,561.18657 C 367.746,560.85428 368.6085,560.81876 369.33037,561.10763 C 370.1281,561.42685 369.89115,561.66381 368.7262,561.71179 C 367.67204,561.75521 367.08141,561.51887 367.4137,561.18657 z M 352.14287,556.79074 C 352.14287,556.24074 352.34131,555.79074 352.58385,555.79074 C 352.82639,555.79074 353.30295,556.24074 353.64287,556.79074 C 353.98279,557.34074 353.78435,557.79074 353.20189,557.79074 C 352.61943,557.79074 352.14287,557.34074 352.14287,556.79074 z M 313.93814,545.05674 C 307.66186,539.80784 306.99503,538.00317 312.87254,542.17285 C 323.03036,549.3791 323.49756,549.79074 321.51869,549.79074 C 320.46272,549.79074 317.05147,547.66044 313.93814,545.05674 z M 327.75332,547.17537 C 329.89257,545.73692 332.47562,543.68217 333.49342,542.60926 C 335.69154,540.29212 336.27271,540.57824 335.48516,543.58983 C 335.12031,544.98501 333.24203,546.53799 330.3977,547.79616 C 324.186,550.5439 323.11693,550.29292 327.75332,547.17537 z M 343.64287,526.79074 C 343.30295,526.24074 343.50139,525.79074 344.08385,525.79074 C 344.66631,525.79074 345.14287,526.24074 345.14287,526.79074 C 345.14287,527.34074 344.94443,527.79074 344.70189,527.79074 C 344.45935,527.79074 343.98279,527.34074 343.64287,526.79074 z M 342.14287,506.79074 C 342.14287,506.24074 342.59287,505.79074 343.14287,505.79074 C 343.69287,505.79074 344.14287,506.24074 344.14287,506.79074 C 344.14287,507.34074 343.69287,507.79074 343.14287,507.79074 C 342.59287,507.79074 342.14287,507.34074 342.14287,506.79074 z M 249.78547,502.53203 C 249.30405,500.69111 249.36665,500.68328 251.21242,502.35368 C 253.52149,504.44336 253.52485,504.45741 251.71592,504.45741 C 250.93109,504.45741 250.06239,503.59099 249.78547,502.53203 z M 265.77201,499.04074 C 268.3307,495.87824 271.43907,492.73839 272.67951,492.0633 C 275.83138,490.34793 284.198,491.13787 285.38734,493.26311 C 286.81966,495.82252 285.87871,495.95029 281.61321,493.77562 C 279.47194,492.68394 276.97009,491.79074 276.05355,491.79074 C 275.13701,491.79074 271.8191,494.71574 268.68043,498.29074 C 261.62481,506.3272 259.41589,506.89682 265.77201,499.04074 z M 325.14287,492.84976 C 325.14287,492.2673 325.59287,491.79074 326.14287,491.79074 C 326.69287,491.79074 327.14287,491.98918 327.14287,492.23172 C 327.14287,492.47426 326.69287,492.95082 326.14287,493.29074 C 325.59287,493.63066 325.14287,493.43222 325.14287,492.84976 z M 339.59471,470.45487 C 339.20094,468.88597 339.95525,466.50749 341.89203,463.21104 C 344.35563,459.01794 345.34857,458.20134 348.70925,457.60454 C 354.52557,456.57166 363.16608,456.70648 360.64287,457.79074 C 359.54287,458.26343 355.84074,458.6818 352.41592,458.72046 C 346.9071,458.78263 345.99898,459.08072 344.54146,461.30517 C 343.63532,462.6881 342.66643,465.8381 342.38835,468.30517 C 341.83994,473.17067 340.52943,474.1791 339.59471,470.45487 z M 367.14287,448.84976 C 367.14287,448.2673 367.59287,447.79074 368.14287,447.79074 C 368.69287,447.79074 369.14287,447.98918 369.14287,448.23172 C 369.14287,448.47426 368.69287,448.95082 368.14287,449.29074 C 367.59287,449.63066 367.14287,449.43222 367.14287,448.84976 z "
         id="path2172" />
    </g>
  </g>
</svg>
